<svg width="25" height="24" viewBox="0 0 25 24" fill="none" xmlns="http://www.w3.org/2000/svg">
<g id="Frame">
<path id="Vector" d="M21.4144 8.1816C21.2752 8.2896 18.8176 9.6744 18.8176 12.7536C18.8176 16.3152 21.9448 17.5752 22.0384 17.6064C22.024 17.6832 21.5416 19.332 20.3896 21.012C19.3624 22.4904 18.2896 23.9664 16.6576 23.9664C15.0256 23.9664 14.6056 23.0184 12.7216 23.0184C10.8856 23.0184 10.2328 23.9976 8.74 23.9976C7.2472 23.9976 6.2056 22.6296 5.008 20.9496C3.6208 18.9768 2.5 15.912 2.5 13.0032C2.5 8.3376 5.5336 5.8632 8.5192 5.8632C10.1056 5.8632 11.428 6.9048 12.424 6.9048C13.372 6.9048 14.8504 5.8008 16.6552 5.8008C17.3392 5.8008 19.7968 5.8632 21.4144 8.1816ZM15.7984 3.8256C16.5448 2.94 17.0728 1.7112 17.0728 0.4824C17.0728 0.312 17.0584 0.1392 17.0272 0C15.8128 0.0456 14.368 0.8088 13.4968 1.8192C12.8128 2.5968 12.1744 3.8256 12.1744 5.0712C12.1744 5.2584 12.2056 5.4456 12.22 5.5056C12.2968 5.52 12.4216 5.5368 12.5464 5.5368C13.636 5.5368 15.0064 4.8072 15.7984 3.8256Z" fill="white"/>
</g>
</svg>
