<svg width="21" height="20" viewBox="0 0 21 20" fill="none" xmlns="http://www.w3.org/2000/svg">
<g id="Frame" clip-path="url(#clip0_654_2536)">
<g id="Group">
<path id="Vector" d="M10.7041 8.18188V12.0546H16.1958C15.9546 13.3001 15.2309 14.3547 14.1456 15.0638L17.4573 17.582C19.3868 15.8366 20.5 13.2729 20.5 10.2275C20.5 9.51837 20.4351 8.83648 20.3145 8.18199L10.7041 8.18188Z" fill="#4285F4"/>
<path id="Vector_2" d="M4.98541 11.9034L4.23849 12.4638L1.59465 14.4819C3.27369 17.7455 6.71501 20.0001 10.7039 20.0001C13.4589 20.0001 15.7687 19.1092 17.4571 17.582L14.1454 15.0638C13.2363 15.6638 12.0767 16.0274 10.7039 16.0274C8.05081 16.0274 5.79669 14.2729 4.98958 11.9092L4.98541 11.9034Z" fill="#34A853"/>
<path id="Vector_3" d="M1.59467 5.51819C0.898969 6.8636 0.500122 8.38181 0.500122 9.99997C0.500122 11.6181 0.898969 13.1364 1.59467 14.4818C1.59467 14.4908 4.98992 11.8999 4.98992 11.8999C4.78584 11.2999 4.66521 10.6636 4.66521 9.99987C4.66521 9.33614 4.78584 8.69981 4.98992 8.09981L1.59467 5.51819Z" fill="#FBBC05"/>
<path id="Vector_4" d="M10.7041 3.98184C12.2069 3.98184 13.5427 4.49092 14.6095 5.47275L17.5315 2.60914C15.7597 0.990976 13.4592 0 10.7041 0C6.71522 0 3.27369 2.24546 1.59465 5.51822L4.9898 8.10005C5.79681 5.73638 8.05102 3.98184 10.7041 3.98184Z" fill="#EA4335"/>
</g>
</g>
<defs>
<clipPath id="clip0_654_2536">
<rect width="20" height="20" fill="white" transform="translate(0.5)"/>
</clipPath>
</defs>
</svg>
